<svg xmlns="http://www.w3.org/2000/svg" style="display: none;">
  <symbol id="link" viewBox="0 0 24 24" fill="none" stroke="currentColor" stroke-width="2" stroke-linecap="round" stroke-linejoin="round">
    <path d="M15 7h3a5 5 0 0 1 5 5 5 5 0 0 1-5 5h-3m-6 0H6a5 5 0 0 1-5-5 5 5 0 0 1 5-5h3"></path><line x1="8" y1="12" x2="16" y2="12"></line>
  </symbol>

  <symbol id="checkmark" viewBox="0 0 24 24" fill="none" stroke="currentColor" stroke-width="3" stroke-linecap="round" stroke-linejoin="round">
    <polyline points="20 6 9 17 4 12"></polyline>
  </symbol>

  <symbol id="chevron-down" viewBox="0 0 12 8" fill="none" stroke="currentColor" stroke-width="2" stroke-linecap="round" stroke-linejoin="round">
    <path d="M1 1.5L6 6.5L11 1.5"/>
  </symbol>

  <symbol id="search" viewBox="0 0 24 24" fill="none" stroke="currentColor" stroke-width="3" stroke-linecap="round" stroke-linejoin="round">
    <circle cx="11" cy="11" r="8"></circle>
    <path d="m23 23-5.66-5.66"></path>
  </symbol>

  <symbol id="home" viewBox="0 0 24 24" fill="none" stroke="currentColor" stroke-width="3" stroke-linecap="round" stroke-linejoin="round">
    <path d="M3 9l9-7 9 7v11a2 2 0 0 1-2 2H5a2 2 0 0 1-2-2z"></path>
  </symbol>

  <symbol id="back" viewBox="0 0 24 24" fill="none" stroke="currentColor" stroke-width="2" stroke-linecap="round" stroke-linejoin="round">
    <path d="M21 12H3M10 19l-9-7 9-7"/>
  </symbol>
</svg>