<svg xmlns="http://www.w3.org/2000/svg" style="display: none;">
  <symbol id="link" viewBox="0 0 576 320" fill="currentColor">
    <path d="M 0 160 Q 2 92 47 47 L 47 47 L 47 47 Q 92 2 160 0 L 232 0 L 232 0 Q 254 2 256 24 Q 254 46 232 48 L 160 48 L 160 48 Q 112 49 81 81 Q 49 112 48 160 Q 49 208 81 239 Q 112 271 160 272 L 232 272 L 232 272 Q 254 274 256 296 Q 254 318 232 320 L 160 320 L 160 320 Q 92 318 47 273 Q 2 228 0 160 L 0 160 Z M 576 160 Q 574 228 529 273 L 529 273 L 529 273 Q 484 318 416 320 L 344 320 L 344 320 Q 322 318 320 296 Q 322 274 344 272 L 416 272 L 416 272 Q 464 271 495 239 Q 527 208 528 160 Q 527 112 495 81 Q 464 49 416 48 L 344 48 L 344 48 Q 322 46 320 24 Q 322 2 344 0 L 416 0 L 416 0 Q 484 2 529 47 Q 574 92 576 160 L 576 160 Z M 184 136 L 392 136 L 184 136 L 392 136 Q 414 138 416 160 Q 414 182 392 184 L 184 184 L 184 184 Q 162 182 160 160 Q 162 138 184 136 L 184 136 Z" />
  </symbol>

  <symbol id="down-arrow" viewBox="0 0 576 320" fill="currentColor">
      <path d="M 236.48430493273543 385.7219730941704 Q 256 401.7937219730942 275.5156950672646 385.7219730941704 L 495.92825112107624 165.30941704035874 L 495.92825112107624 165.30941704035874 Q 512 145.79372197309416 495.92825112107624 126.27802690582959 Q 476.41255605381167 110.20627802690584 456.8968609865471 126.27802690582959 L 256 327.17488789237666 L 256 327.17488789237666 L 55.10313901345292 126.27802690582959 L 55.10313901345292 126.27802690582959 Q 35.587443946188344 110.20627802690584 16.071748878923767 126.27802690582959 Q 0 145.79372197309416 16.071748878923767 165.30941704035874 L 236.48430493273543 385.7219730941704 L 236.48430493273543 385.7219730941704 Z" />
  </symbol>
</svg>